<svg width="75" height="53" viewBox="0 0 75 53" fill="none" xmlns="http://www.w3.org/2000/svg">
<path fill-rule="evenodd" clip-rule="evenodd" d="M40.8244 49.9646C38.9913 51.7978 37.8236 52.7144 37.3214 52.7144C36.8191 52.7144 35.6514 51.7915 33.8183 49.9458C31.9851 48.1001 31.0686 46.9261 31.0686 46.4239C31.0686 45.6203 31.8533 44.9423 33.4228 44.3899C34.9923 43.8374 36.2918 43.5612 37.3214 43.5612C38.3509 43.5612 39.6505 43.8374 41.2199 44.3899C42.7894 44.9423 43.5742 45.6203 43.5742 46.4239C43.5742 46.9261 42.6576 48.1064 40.8244 49.9646ZM47.4916 42.5065C47.4413 42.5065 46.9391 42.1926 45.9849 41.5648C45.0306 40.937 43.7562 40.3092 42.1616 39.6814C40.567 39.0536 38.9536 38.7397 37.3213 38.7397C35.6891 38.7397 34.0757 39.0536 32.4811 39.6814C30.8865 40.3092 29.6184 40.937 28.6767 41.5648C27.735 42.1926 27.2265 42.5065 27.1511 42.5065C26.6991 42.5065 25.5252 41.5648 23.6292 39.6814C21.7333 37.798 20.7853 36.6304 20.7853 36.1783C20.7853 35.8519 20.9109 35.5631 21.162 35.312C23.1207 33.3784 25.5817 31.8592 28.5448 30.7542C31.508 29.6493 34.4335 29.0969 37.3213 29.0969C40.2092 29.0969 43.1347 29.6493 46.0978 30.7542C49.061 31.8591 51.522 33.3784 53.4807 35.312C53.7318 35.5631 53.8573 35.8519 53.8573 36.1783C53.8573 36.6304 52.9094 37.798 51.0134 39.6814C49.1175 41.5648 47.9436 42.5065 47.4915 42.5065H47.4916ZM57.7747 32.261C57.4985 32.261 57.2097 32.1605 56.9084 31.9597C53.4932 29.3229 50.3291 27.3831 47.4162 26.14C44.5032 24.897 41.1383 24.2755 37.3213 24.2755C35.1868 24.2755 33.046 24.5517 30.899 25.1042C28.752 25.6566 26.8811 26.3221 25.2866 27.1006C23.692 27.879 22.2669 28.6575 21.0113 29.4359C19.7557 30.2144 18.7638 30.8799 18.0356 31.4323C17.3074 31.9848 16.9181 32.261 16.8679 32.261C16.441 32.261 15.2859 31.3193 13.4025 29.4359C11.5191 27.5526 10.5774 26.3849 10.5774 25.9329C10.5774 25.6315 10.703 25.3553 10.9541 25.1042C14.2688 21.7895 18.2867 19.2155 23.0077 17.3824C27.7287 15.5492 32.4999 14.6326 37.3213 14.6326C42.1427 14.6326 46.914 15.5492 51.6349 17.3824C56.3559 19.2155 60.3738 21.7895 63.6885 25.1042C63.9396 25.3553 64.0652 25.6315 64.0652 25.9329C64.0652 26.3849 63.1235 27.5526 61.2401 29.4359C59.3568 31.3193 58.2016 32.261 57.7747 32.261H57.7747ZM67.9827 22.0531C67.7065 22.0531 67.4303 21.9401 67.154 21.7141C62.6591 17.7716 57.9946 14.8021 53.1606 12.8058C48.3266 10.8094 43.0469 9.8112 37.3214 9.8112C31.596 9.8112 26.3163 10.8094 21.4823 12.8058C16.6483 14.8021 11.9838 17.7716 7.48884 21.7141C7.21261 21.9401 6.93639 22.0531 6.66016 22.0531C6.23326 22.0531 5.07185 21.1114 3.17592 19.2281C1.27999 17.3447 0.332031 16.177 0.332031 15.725C0.332031 15.3985 0.45759 15.1097 0.708706 14.8586C5.40458 10.1879 10.9919 6.5718 17.4707 4.01041C23.9495 1.44903 30.5664 0.168335 37.3214 0.168335C44.0765 0.168335 50.6934 1.44903 57.1721 4.01041C63.651 6.5718 69.2383 10.1879 73.9342 14.8586C74.1853 15.1097 74.3108 15.3985 74.3108 15.725C74.3108 16.177 73.3629 17.3447 71.4669 19.2281C69.571 21.1114 68.4096 22.0531 67.9827 22.0531H67.9827Z" fill="#128AED"/>
</svg>
