<svg width="35" height="64" viewBox="0 0 35 64" fill="none" xmlns="http://www.w3.org/2000/svg">
<path fill-rule="evenodd" clip-rule="evenodd" d="M33.586 17.284C34.038 17.7862 34.1259 18.3386 33.8497 18.9413L13.5093 62.5225C13.1828 63.1503 12.6555 63.4642 11.9273 63.4642C11.8268 63.4642 11.651 63.439 11.3999 63.3888C10.973 63.2633 10.6528 63.0247 10.4394 62.6731C10.2259 62.3216 10.1694 61.9449 10.2699 61.5431L17.6904 31.1078L2.39739 34.9122C2.29694 34.9373 2.14627 34.9499 1.94538 34.9499C1.49337 34.9499 1.10414 34.8118 0.777689 34.5356C0.325681 34.1589 0.162455 33.6692 0.288013 33.0665L7.85917 1.99088C7.95962 1.63932 8.16051 1.35053 8.46185 1.12453C8.76319 0.898525 9.11475 0.785522 9.51654 0.785522H21.8714C22.3486 0.785522 22.7503 0.94247 23.0768 1.25636C23.4032 1.57026 23.5665 1.94066 23.5665 2.36755C23.5665 2.56845 23.5037 2.79445 23.3781 3.04557L16.937 20.4856L31.8533 16.7942C32.0542 16.744 32.2049 16.7189 32.3053 16.7189C32.7824 16.7189 33.2093 16.9072 33.586 17.2839L33.586 17.284Z" fill="#128AED"/>
</svg>
